PathFileType	4	(X/Y/Z)	C:/Users/beibeiliu/ov580/test_trc/User1\sequence.6_training_dense_left.trc
DataRate	CameraRate	NumFrames	NumMarkers	Units	OrigDataRate	OrigDataStartFrame	OrigNumFrames
120	120	8	19	mm	120	104	277
Frame#	Time	ThumbCMC			ThumbMCP			ThumbIP			ThumbTip			IndexMCP			IndexPIP			IndexTip			MiddleMCP			MiddlePIP			MiddleTip			RingMCP			RingPIP			RingTip			PinkyMCP			PinkyPIP			PinkyTip			BackHand1			BackHand2			BackHand3	
		X0	Y0	Z0	X1	Y1	Z1	X2	Y2	Z2	X3	Y3	Z3	X4	Y4	Z4	X5	Y5	Z5	X6	Y6	Z6	X7	Y7	Z7	X8	Y8	Z8	X9	Y9	Z9	X10	Y10	Z10	X11	Y11	Z11	X12	Y12	Z12	X13	Y13	Z13	X14	Y14	Z14	X15	Y15	Z15	X16	Y16	Z16	X17	Y17	Z17	X18	Y18	Z18	
103	0.858333	-159.786	104.109	16.4897	-146.196	80.6037	-8.97993	-142.67	67.2857	-35.2979	-149.421	53.4118	-58.9605	-171.958	129.449	-61.9322	-173.575	129.81	-87.353	-178.388	130.663	-113.218	-188.286	101.719	-71.5814	-174.835	67.9664	-74.4991	-169.12	57.6714	-41.0137	-203.907	84.0665	-61.7946	-188.898	54.3157	-56.1144	-183.754	50.7425	-21.2913	-223.902	76.8793	-48.8181	-202.839	56.1993	-43.5616	-189.991	59.6292	-12.992	-221.179	119.203	-11.4249	-222.162	121.677	22.9167	-190.399	131.993	7.32373	
104	0.866667	-156.518	100.015	20.1185	-147.515	76.3221	-10.6656	-145.46	63.4166	-36.8955	-154.375	52.1152	-62.5371	-164.055	129.685	-59.9655	-167.636	130.701	-86.6797	-173.858	134.136	-112.366	-187.483	104.931	-70.3068	-177.711	71.6122	-76.942	-172.586	58.5743	-38.1349	-204.918	86.2189	-62.8533	-193.986	57.9892	-57.6336	-187.348	53.0661	-22.4289	-224.723	86.4973	-45.639	-207.637	60.6982	-43.4118	-196.056	59.3233	-12.7231	-217.473	126.432	-9.57132	-220.478	127.026	29.4862	-180.271	131.118	12.2572	
105	0.875	-154.802	96.9567	17.6139	-147.728	71.0453	-9.18711	-151.315	63.3204	-37.7112	-156.526	51.1072	-57.0563	-155.782	127.887	-57.6961	-161.552	130.232	-80.953	-163.689	136.829	-109.815	-179.472	108.69	-69.2609	-178.277	75.2707	-78.5976	-174.735	57.231	-42.092	-203.864	96.1153	-59.352	-195.049	59.5625	-56.0901	-191.725	54.5526	-20.8586	-225.853	90.058	-46.2255	-212.235	63.4107	-43.2456	-197.089	65.1214	-15.0667	-206.863	129.894	-6.45279	-210.685	130.007	30.6431	-177.481	130.056	9.6474	
106	0.883333	-149.211	90.8571	19.6938	-145.521	65.1048	-8.3219	-151.028	59.7351	-39.0514	-162.769	52.1284	-63.7735	-151.991	127.204	-59.2853	-153.806	131.337	-81.6086	-158.465	136.574	-106.48	-179.61	108.383	-71.56	-179.828	76.2158	-77.784	-180.825	57.9713	-41.0226	-202.036	98.7506	-59.2971	-201.721	64.1925	-56.9427	-197.937	55.9535	-25.092	-221.163	93.0658	-47.727	-215.843	65.6147	-41.5302	-201.42	67.5419	-8.23751	-205.095	131.183	-7.19594	-206.84	130.16	32.4955	-168.516	127.839	14.5522	
107	0.891667	-151.344	86.424	20.9564	-148.147	64.1769	-13.3258	-153.161	57.7157	-37.9461	-163.652	50.6782	-63.8796	-146.088	123.984	-54.1581	-148.879	129.322	-79.1791	-153.677	135.888	-105.016	-177.743	108.227	-70.3223	-180.066	74.4872	-76.5741	-182.97	58.5725	-44.4621	-202.269	98.7682	-59.3691	-205.66	65.9705	-57.4863	-197.189	56.4394	-24.5656	-221.218	98.1453	-46.8728	-214.687	71.1977	-41.533	-200.526	70.9653	-11.4596	-201.407	133.127	-5.06368	-202.169	129.89	33.2739	-164.481	127.36	14.7473	
108	0.9	-150.151	82.1241	20.5976	-151.607	61.5785	-12.2632	-154.093	53.9185	-39.7153	-165.705	48.0118	-61.7886	-141.054	120.566	-54.1064	-141.708	126.362	-78.5361	-140.788	133.211	-105.919	-172.117	107.639	-70.4612	-180.692	73.3803	-75.6923	-181.6	57.9002	-41.55	-200.72	98.1626	-60.9353	-205.74	67.8143	-57.4381	-199.855	58.182	-24.0896	-219.764	100.972	-46.0578	-215.929	71.4936	-39.2272	-199.646	70.1738	-13.2056	-192.945	133.688	-4.07584	-195.515	131.555	31.7247	-161.899	122.372	13.5292	
109	0.908333	-150.409	77.8014	17.8289	-150.247	53.0472	-12.3743	-157.974	50.2406	-39.4065	-168.702	46.8944	-65.1953	-138.729	114.628	-56.0733	-135.984	117.917	-76.2713	-134.432	124.287	-100.96	-169.526	107.345	-65.5099	-180.676	72.9115	-76.9448	-187.714	57.803	-43.9944	-196.863	100.13	-59.5259	-204.465	66.4582	-54.6404	-204.226	57.7395	-26.1182	-218.527	102.734	-46.6252	-212.58	74.4816	-40.0658	-202.35	69.5917	-10.3411	-189.703	131.914	-0.624353	-190.417	130.228	35.0535	-156.45	118.325	17.9711	
110	0.916667	-150.184	69.6268	22.3309	-153.664	47.9499	-14.2553	-160.934	46.4785	-40.7072	-171.94	46.2634	-62.8796	-133.888	106.69	-53.929	-132.458	111.006	-79.7005	-128.918	115.591	-100.416	-166.499	101.994	-67.381	-182.791	71.6608	-75.8776	-187.806	54.187	-38.9542	-192.896	99.4295	-58.3308	-204.974	67.9869	-55.8108	-206.501	57.0884	-24.0857	-212.893	104.627	-44.9124	-214.028	76.5349	-40.0773	-202.002	71.0859	-12.7021	-185.271	130.405	-0.21373	-187.735	128.197	35.7087	-151.813	112.972	18.7449	
